<svg width="8" height="17" viewBox="0 0 8 17" fill="none" xmlns="http://www.w3.org/2000/svg">
<path d="M4.35355 0.578087C4.15829 0.382825 3.84171 0.382825 3.64645 0.578087L0.464466 3.76007C0.269204 3.95533 0.269204 4.27191 0.464466 4.46717C0.659728 4.66244 0.976311 4.66244 1.17157 4.46717L4 1.63875L6.82843 4.46717C7.02369 4.66244 7.34027 4.66244 7.53553 4.46717C7.7308 4.27191 7.7308 3.95533 7.53553 3.76007L4.35355 0.578087ZM3.64645 16.2852C3.84171 16.4805 4.15829 16.4805 4.35355 16.2852L7.53553 13.1032C7.7308 12.908 7.7308 12.5914 7.53553 12.3961C7.34027 12.2008 7.02369 12.2008 6.82843 12.3961L4 15.2245L1.17157 12.3961C0.97631 12.2008 0.659728 12.2008 0.464466 12.3961C0.269203 12.5914 0.269203 12.908 0.464466 13.1032L3.64645 16.2852ZM3.5 0.931641L3.5 15.9316L4.5 15.9316L4.5 0.931641L3.5 0.931641Z" fill="#AAA6A5"/>
</svg>
