<svg width="10" height="14" viewBox="0 0 10 14" fill="none" xmlns="http://www.w3.org/2000/svg">
<path d="M1.66162 0.250162C1.2475 -0.115241 0.615566 -0.0757457 0.250162 0.338378C-0.115241 0.752502 -0.0757457 1.38443 0.338378 1.74984L1.66162 0.250162ZM7.8 7L8.46162 7.74984L9.31144 7L8.46162 6.25016L7.8 7ZM0.338378 12.2502C-0.0757457 12.6156 -0.115241 13.2475 0.250162 13.6616C0.615566 14.0757 1.2475 14.1152 1.66162 13.7498L0.338378 12.2502ZM0.338378 1.74984L7.13838 7.74984L8.46162 6.25016L1.66162 0.250162L0.338378 1.74984ZM7.13838 6.25016L0.338378 12.2502L1.66162 13.7498L8.46162 7.74984L7.13838 6.25016Z" fill="#CEE1E6"/>
</svg>
