<svg width="67" height="41" viewBox="0 0 67 41" fill="none" xmlns="http://www.w3.org/2000/svg">
<path d="M12.5011 7.38867H4.25627C3.67249 7.38867 3.19922 7.86194 3.19922 8.44572C3.19922 9.0295 3.67249 9.50278 4.25627 9.50278H12.501C13.0847 9.50278 13.558 9.0295 13.558 8.44572C13.558 7.86194 13.0849 7.38867 12.5011 7.38867Z" fill="#25C5C2"/>
<path d="M13.2059 22.1855H5.66594C5.08216 22.1855 4.60889 22.6588 4.60889 23.2426C4.60889 23.8264 5.08216 24.2997 5.66594 24.2997H13.206C13.7898 24.2997 14.2631 23.8264 14.2631 23.2426C14.2631 22.6588 13.7897 22.1855 13.2059 22.1855Z" fill="#25C5C2"/>
<path d="M10.3869 15.8438H1.43742C0.853643 15.8438 0.380371 16.317 0.380371 16.9008C0.380371 17.4846 0.853643 17.9579 1.43742 17.9579H10.3869C10.9706 17.9579 11.4439 17.4846 11.4439 16.9008C11.4439 16.317 10.9706 15.8438 10.3869 15.8438Z" fill="#25C5C2"/>
<path d="M10.3868 30.6426H9.51994C8.93616 30.6426 8.46289 31.1158 8.46289 31.6996C8.46289 32.2834 8.93616 32.7567 9.51994 32.7567H10.3868C10.9706 32.7567 11.4439 32.2834 11.4439 31.6996C11.4439 31.1158 10.9706 30.6426 10.3868 30.6426Z" fill="#25C5C2"/>
<path d="M5.99638 30.6426H1.43742C0.853643 30.6426 0.380371 31.1158 0.380371 31.6996C0.380371 32.2834 0.853643 32.7567 1.43742 32.7567H5.99638C6.58016 32.7567 7.05343 32.2834 7.05343 31.6996C7.05343 31.1158 6.58016 30.6426 5.99638 30.6426Z" fill="#25C5C2"/>
<path d="M55.6046 3.94029H46.6448V2.03752C46.6448 1.45374 46.1715 0.980469 45.5877 0.980469H29.2014C28.6176 0.980469 28.1443 1.45374 28.1443 2.03752C28.1443 2.6213 28.6176 3.09457 29.2014 3.09457H44.5306V26.2471C44.5306 26.8308 45.0038 27.3041 45.5876 27.3041C46.1714 27.3041 46.6447 26.8308 46.6447 26.2471V6.05439H55.6044C60.4345 6.05439 64.3641 9.98335 64.3641 14.8126V32.6927H61.6765C61.1681 29.5018 58.3978 27.055 55.066 27.055C51.7342 27.055 48.9639 29.5018 48.4555 32.6927H46.6447V31.1801C46.6447 30.5964 46.1714 30.1231 45.5876 30.1231C45.0038 30.1231 44.5306 30.5964 44.5306 31.1801V32.6927H33.3118C32.8035 29.5018 30.0331 27.055 26.7014 27.055C23.3696 27.055 20.5992 29.5018 20.0908 32.6927H17.8924V3.09457H24.9732C25.5569 3.09457 26.0302 2.6213 26.0302 2.03752C26.0302 1.45374 25.5569 0.980469 24.9732 0.980469H16.8354C16.2516 0.980469 15.7783 1.45374 15.7783 2.03752V33.7497C15.7783 34.3335 16.2516 34.8068 16.8354 34.8068H20.0908C20.5992 37.9977 23.3696 40.4445 26.7014 40.4445C30.0331 40.4445 32.8036 37.9977 33.3118 34.8068H48.4555C48.9639 37.9977 51.7342 40.4445 55.066 40.4445C58.3977 40.4445 61.168 37.9977 61.6764 34.8068H65.421C66.0048 34.8068 66.4781 34.3335 66.4781 33.7497V14.8126C66.4783 8.8176 61.6005 3.94029 55.6046 3.94029ZM26.7014 38.3303C24.1757 38.3303 22.1208 36.2755 22.1208 33.7497C22.1208 31.2239 24.1757 29.1691 26.7014 29.1691C29.2271 29.1691 31.282 31.2239 31.282 33.7497C31.282 36.2755 29.2271 38.3303 26.7014 38.3303ZM55.0662 38.3303C52.5408 38.3303 50.4861 36.276 50.4856 33.7506C50.4856 33.7504 50.4856 33.7501 50.4856 33.7497C50.4856 33.7493 50.4856 33.7492 50.4856 33.7488C50.4861 31.2234 52.5408 29.1691 55.0662 29.1691C57.5919 29.1691 59.6469 31.2239 59.6469 33.7497C59.6469 36.2755 57.5919 38.3303 55.0662 38.3303Z" fill="#25C5C2"/>
<path d="M55.6048 8.16797H49.8163C49.2326 8.16797 48.7593 8.64124 48.7593 9.22502V19.1615C48.7593 19.7453 49.2326 20.2186 49.8163 20.2186H61.1932C61.777 20.2186 62.2502 19.7453 62.2502 19.1615V14.812C62.2502 11.1486 59.2692 8.16797 55.6048 8.16797ZM60.1361 18.1045H50.8734V10.2822H55.6048C58.1035 10.2822 60.1361 12.3143 60.1361 14.8121V18.1045Z" fill="#25C5C2"/>
<path d="M26.7013 31.0254C25.1986 31.0254 23.9761 32.2479 23.9761 33.7506C23.9761 35.2533 25.1986 36.4759 26.7013 36.4759C28.204 36.4759 29.4266 35.2533 29.4266 33.7506C29.4266 32.2478 28.204 31.0254 26.7013 31.0254ZM26.7013 34.3618C26.3644 34.3618 26.0902 34.0877 26.0902 33.7506C26.0902 33.4136 26.3643 33.1395 26.7013 33.1395C27.0383 33.1395 27.3125 33.4136 27.3125 33.7506C27.3125 34.0877 27.0383 34.3618 26.7013 34.3618Z" fill="#25C5C2"/>
<path d="M55.0661 31.0254C53.5634 31.0254 52.3408 32.2479 52.3408 33.7506C52.3408 35.2533 53.5634 36.4759 55.0661 36.4759C56.5688 36.4759 57.7913 35.2533 57.7913 33.7506C57.7913 32.2478 56.5688 31.0254 55.0661 31.0254ZM55.0661 34.3618C54.7291 34.3618 54.4549 34.0877 54.4549 33.7506C54.4549 33.4136 54.729 33.1395 55.0661 33.1395C55.403 33.1395 55.6772 33.4136 55.6772 33.7506C55.6772 34.0877 55.4029 34.3618 55.0661 34.3618Z" fill="#25C5C2"/>
<path d="M61.1928 23.1074C60.609 23.1074 60.1357 23.5807 60.1357 24.1645V26.8423C60.1357 27.4261 60.609 27.8994 61.1928 27.8994C61.7766 27.8994 62.2498 27.4261 62.2498 26.8423V24.1645C62.2498 23.5807 61.7766 23.1074 61.1928 23.1074Z" fill="#25C5C2"/>
</svg>
