<svg width="74" height="65" viewBox="0 0 74 65" fill="none" xmlns="http://www.w3.org/2000/svg">
<path fill-rule="evenodd" clip-rule="evenodd" d="M52.7102 24.3066H60.1037L61.3678 24.3388L62.566 24.4031L63.769 24.498L64.8723 24.6942L65.9403 24.987L66.9792 25.3746L67.9185 25.8619L68.7934 26.4135L69.6056 27.0601L70.3487 27.7726L71.0274 28.5832L71.6112 29.4581L72.0985 30.4022L72.5183 31.4106L72.8737 32.5091L73.1069 33.6446L73.234 34.8428L73.2983 36.1101L73.2662 37.1459L73.1391 38.1173L72.9429 39.0919L72.6502 39.999L72.2947 40.9061L71.8717 41.7505L71.3876 42.5337L70.8682 43.309L70.2522 43.9925L69.6056 44.6406L68.8899 45.2245L68.1469 45.7761L67.3668 46.2265L66.5241 46.6462L65.6797 47.0065L64.7726 47.267L63.3139 47.526L61.823 47.6225H52.9692L52.1907 47.5903L51.4155 47.526L49.9552 47.267L48.5929 46.8424L47.2982 46.2908L46.0952 45.5477L44.9951 44.705L43.9883 43.7287L43.0812 42.6302L53.7492 42.6624L54.4601 43.5695L55.3077 44.4123L56.2469 45.1923L56.7664 45.5799L57.3502 45.9032L58.0933 45.4159L58.7784 44.9012L59.3928 44.3495L59.9444 43.7657L60.4285 43.1497L60.8515 42.5337L61.207 41.8824L61.5319 41.231L62.0192 39.9041L62.3425 38.5403L62.5033 37.178L62.566 35.8817L62.5033 34.5516L62.3103 33.1604L61.9516 31.7017L61.7281 30.986L61.4 30.2751L61.0478 29.5546L60.6248 28.8759L60.1358 28.2277L59.552 27.5812L58.9055 26.9925L58.1946 26.4457L57.3824 25.9262L56.5075 25.4695L55.3077 25.9262L54.1046 26.4779L52.9692 27.0601L51.8658 27.7082L50.7947 28.4239L49.7284 29.1992L47.6858 30.8268L45.7076 32.6088L43.7969 34.4551L39.9675 38.2492L38.0246 40.0634L36.0142 41.818L34.9801 42.6302L33.9089 43.4087L32.8362 44.1212L31.7377 44.7999L30.6022 45.4159L29.404 45.9675L28.2042 46.4548L26.9369 46.8424L25.6422 47.1657L24.2799 47.4263L22.8839 47.5581L21.4251 47.6225H14.0301L12.7676 47.5903L11.5694 47.489L10.3696 47.3941L9.26624 47.1979L8.1951 46.9068L7.16095 46.5192L6.22169 46.0624L5.34516 45.4834L4.53456 44.8642L3.78669 44.1533L3.13854 43.3411L2.55633 42.4662L2.03684 41.5221L1.64923 40.5185L1.29219 39.4152L1.06541 38.2813L0.936748 37.0815L0.874023 35.819L0.906189 34.78L1.03325 33.8086L1.22946 32.8372L1.52057 31.9253L1.87601 31.0182L2.26361 30.1754L2.75254 29.3954L3.3042 28.6475L3.88641 27.9366L4.53456 27.2885L5.24544 26.7014L5.99331 26.153L6.77335 25.6978L7.61128 25.2781L8.45565 24.9226L9.36274 24.6589L10.0784 24.498L10.8215 24.4031L12.3124 24.3066H21.171L21.9462 24.3388L22.7247 24.4031L24.1834 24.6589L25.5794 25.0819L26.842 25.6335L28.0402 26.346L29.1435 27.1888L30.1471 28.165L31.0542 29.2635H20.4232L19.6801 28.3564L18.8631 27.512L17.8917 26.7014L17.3722 26.346L16.79 26.0211L16.0421 26.5084L15.3618 27.0295L14.7474 27.5812L14.2263 28.165L13.739 28.7794L13.3192 29.3954L12.9316 30.0419L12.6357 30.6949L12.1532 32.025L11.8283 33.3888L11.6643 34.7479L11.6015 36.0426L11.6643 37.3743L11.8283 38.7687L12.1853 40.2274L12.4443 40.9383L12.737 41.654L13.0924 42.3697L13.5154 43.05L14.0301 43.7014L14.5834 44.3125L15.2299 44.9012L15.9456 45.4528L16.753 45.9675L17.6327 46.4227L18.8309 45.9675L20.0034 45.4159L21.171 44.832L22.2695 44.1839L23.3407 43.473L24.3796 42.693L26.4222 41.0348L28.3651 39.2833L30.3111 37.437L34.1052 33.6767L36.0464 31.8304L38.0568 30.1062L39.0958 29.2989L40.1637 28.5204L41.2348 27.8047L42.3382 27.1244L43.5058 26.5084L44.6718 25.9584L45.9022 25.4695L47.1663 25.0819L48.461 24.7586L49.8233 24.498L51.2515 24.371L52.7102 24.3066Z" fill="#00E0E0"/>
<path fill-rule="evenodd" clip-rule="evenodd" d="M37.0855 64.9646L37.9298 64.1605L38.6729 63.2534L39.3564 62.2466L39.9354 61.2108L40.4179 60.0399L40.7106 58.8031L40.8714 57.5084V56.8297L40.8393 56.1462L40.7379 55.5302L40.6109 54.9464L40.2185 53.8109L39.7038 52.6449L39.12 51.4129L38.5442 50.0185L38.2853 49.2706L37.9925 48.4584L37.7658 47.5513L37.5374 46.6137L37.3412 45.5731L37.2141 44.4473H36.8924L36.7638 45.5731L36.5676 46.6137L36.3714 47.5513L36.1124 48.4584L35.8583 49.2674L35.5592 50.0185L34.9753 51.4129L34.4237 52.6449L33.9042 53.8109L33.5166 54.9464L33.3847 55.5302L33.2882 56.1462L33.256 56.8297V57.5084L33.2882 58.1888L33.3847 58.8031L33.7064 60.0399L34.1615 61.2108L34.7453 62.2466L35.4562 63.2534L36.2363 64.1605L37.0855 64.9646ZM22.3018 57.7979H23.1059L23.9567 57.7384L24.7995 57.5776L25.6117 57.3492L26.4158 56.9938L27.1589 56.574L27.8698 55.9918L28.5227 55.3067L29.0052 54.5958L29.3607 53.8157L29.6534 53.0116L29.8496 52.2315L30.0458 51.4515L30.2067 50.7085L30.435 50.0651L30.694 49.4717L30.5991 49.3446L30.0153 49.6405L29.3623 49.8577L28.6209 50.0523L27.8424 50.2131L27.0672 50.4415L26.2872 50.7326L25.5071 51.088L24.7963 51.5705L24.1176 52.2139L23.5337 52.9247L23.077 53.6726L22.7553 54.4848L22.5269 55.289L22.3661 56.1333L22.3034 56.9761L22.3018 57.7979ZM51.8032 57.7979H50.991L50.1482 57.7336L49.3039 57.5728L48.4997 57.3444L47.6955 56.989L46.9477 56.5692L46.2368 55.987L45.5935 55.3018L45.111 54.591L44.7555 53.8109L44.4628 53.0068L44.2666 52.2267L44.0607 51.4419L43.8999 50.6988L43.6731 50.0555L43.4126 49.462L43.5123 49.335L44.0913 49.6309L44.7362 49.8577L45.4793 50.0539L46.2593 50.2147L47.0377 50.4431L47.813 50.7342L48.593 51.0896L49.3039 51.5721L50.0196 52.2155L50.5712 52.9263L51.0232 53.6742L51.3786 54.4864L51.607 55.2906L51.7678 56.1349L51.8 56.9777L51.8032 57.7979Z" fill="#D6D601"/>
<path fill-rule="evenodd" clip-rule="evenodd" d="M37.082 64.9648L37.92 64.1575L38.7 63.2504L39.3835 62.242L39.9995 61.2078L40.4547 60.037L40.778 58.8002L40.8745 58.1858L40.942 57.5055V56.8267L40.9114 56.1432L40.8101 55.5272L40.6831 54.9434L40.2585 53.8079L39.739 52.6419L39.16 51.4099L38.5713 50.0155L38.2754 49.2676L37.9843 48.457L37.7607 47.5483L37.5324 46.6107L37.3361 45.5701L37.2091 44.4395H37.082V64.9648Z" fill="#D0C405"/>
<path fill-rule="evenodd" clip-rule="evenodd" d="M29.1034 12.2231L29.3945 13.0659L29.7499 13.7783L30.2067 14.4297L30.6892 15.0087L31.273 15.5604L31.8568 16.0798L33.1242 17.1767L33.7755 17.7605L34.3915 18.4393L34.9753 19.1919L35.4948 20.0315L35.9773 21.0061L36.3698 22.1416L36.5611 22.7576L36.693 23.4009L36.8217 24.1118L36.9166 24.8918H37.182L37.2768 24.1118L37.4055 23.4009L37.5326 22.7576L37.7288 22.1416L38.1212 21.0061L38.6037 20.0315L39.1232 19.1919L39.707 18.4393L40.323 17.7605L40.9663 17.1767L42.2337 16.0734L42.8175 15.5539L43.4013 15.0023L43.916 14.4233L44.3824 13.7719L44.7378 13.0594L45.0257 12.2231L45.1866 11.4752L45.2831 10.7965L45.3152 10.1532V9.52594L45.2187 8.36312L45.0257 7.2566L44.8649 6.14846L44.7636 4.98565V4.34232L44.8263 3.69899L44.9598 3.01545L45.1206 2.27241L44.7282 2.43324L44.2087 2.62463L43.5927 2.88518L42.9494 3.20684L42.2691 3.56228L41.5855 3.98688L40.9422 4.46938L40.323 4.98565L39.9676 4.30694L39.6121 3.72311L39.2245 3.13929L38.8321 2.6568L37.9572 1.7497L37.0806 0.964844L36.18 1.74005L35.305 2.64715L34.9174 3.12964L34.525 3.71346L34.1374 4.29729L33.8157 4.976L33.1997 4.46133L32.5564 3.97884L31.8375 3.55424L31.1588 3.1988L30.5155 2.87714L29.9316 2.61659L29.4122 2.4252L28.9876 2.26437L29.1484 3.00741L29.2771 3.69095L29.3446 4.33428V4.97761L29.2449 6.14525L29.0841 7.25338L28.8798 8.36312L28.7833 9.52915V10.1451L28.8476 10.7885L28.9441 11.4672L29.1034 12.2231ZM42.8481 22.1802L43.7552 22.4392L44.6944 22.6L45.6337 22.6627H46.6148L47.5798 22.5356L48.5447 22.2429L49.484 21.8569L50.4233 21.2731L51.1711 20.6201L51.7871 19.8771L52.3372 19.0971L52.7939 18.2929L53.2137 17.4887L53.6174 16.7264L54.0725 16.0831L54.5245 15.5314L54.428 15.4044L53.7171 15.5314L52.9371 15.5636L52.0943 15.5314L51.1872 15.4992H50.2801L49.3151 15.5636L48.371 15.7598L47.4318 16.0815L46.4668 16.6009L45.6514 17.1848L44.9405 17.8956L44.3245 18.6757L43.805 19.4911L43.4174 20.3676L43.0958 21.2747L42.8481 22.1802ZM31.2408 22.1802L30.3337 22.4392L29.4266 22.6L28.4616 22.6627H27.4822L26.5172 22.5356L25.565 22.2365L24.5888 21.8505L23.6865 21.2667L22.9387 20.6137L22.3243 19.8707L21.7726 19.0906L21.3159 18.2865L20.8961 17.4823L20.4779 16.7264L20.0582 16.0831L19.6143 15.5218L19.6786 15.3947L20.3895 15.5218L21.1695 15.5539L22.0123 15.5218L22.9194 15.4896H23.8586L24.7979 15.5539L25.7259 15.7501L26.6651 16.0718L27.6414 16.5913L28.46 17.1767L29.1709 17.8876L29.7869 18.6676L30.3064 19.4831L30.694 20.3596L31.0157 21.2667L31.2408 22.1802Z" fill="#FF7A9F"/>
<path fill-rule="evenodd" clip-rule="evenodd" d="M45.0915 12.2488L44.8004 13.0594L44.4401 13.8025L43.9882 14.4506L43.4687 15.0377L42.8849 15.5539L42.2689 16.1056L41.0015 17.1767L40.355 17.7605L39.7342 18.4393L39.1552 19.1919L38.6035 20.0315L38.1162 21.0061L37.7286 22.1416L37.5324 22.7882L37.4053 23.4363L37.2734 24.152L37.1769 24.9272H37.082V0.964844L37.9843 1.74005L38.8271 2.64715L39.2517 3.13447L39.6393 3.71829L39.9947 4.30211L40.355 4.98082L40.9693 4.46616L41.6223 3.97884L42.301 3.55424L42.9846 3.1988L43.6649 2.87553L44.2487 2.61498L44.7682 2.42359L45.1864 2.25954L45.0271 3.00259L44.8953 3.68612L44.8309 4.36644V4.98082L44.9274 6.14846L45.0915 7.2566L45.2829 8.39207L45.3826 9.5581V10.1741L45.3504 10.8206L45.2507 11.5058L45.0915 12.2488Z" fill="#FF668F"/>
<path fill-rule="evenodd" clip-rule="evenodd" d="M0.874023 35.8142L0.906189 34.7784L1.03325 33.8038L1.22946 32.8388L1.52057 31.9317L1.87601 31.0246L2.26361 30.177L2.74611 29.4018L3.29776 28.6539L3.87998 27.9382L4.5233 27.2949L5.23418 26.7127L5.98205 26.161L6.76209 25.7091L7.60002 25.2845L8.44439 24.9291L9.35148 24.6701L10.2907 24.5093L11.2654 24.4466L12.2046 24.4787L13.1696 24.6396L14.1137 24.8663L15.0208 25.188L15.9279 25.5756L16.7707 26.0308L16.0244 26.5133L15.3618 27.0199L14.7474 27.5715L14.2263 28.1554L13.7438 28.7697L13.324 29.3906L12.9364 30.0339L12.6405 30.6869L12.158 32.0137L11.8363 33.376L11.6755 34.7398L11.6128 36.0265L11.6755 37.3582L11.8363 38.7478L12.1918 40.2065L12.4523 40.9174L12.7434 41.6331L13.1005 42.3536L13.5235 43.0339L14.0381 43.6773L14.5898 44.2933L15.2331 44.8771L15.9488 45.4287L16.753 45.9482L17.6327 46.3986L16.0421 46.9197L14.4547 47.2751L12.9316 47.4359L11.4053 47.4681L9.97712 47.3073L8.58753 47.0161L7.25584 46.5337L6.05764 45.9177L4.92217 45.1939L3.91858 44.2868L3.04847 43.2093L2.65604 42.6206L2.29578 42.0046L1.97412 41.3613L1.6814 40.6504L1.45463 39.9347L1.23107 39.1917L1.07024 38.3875L0.973739 37.5753L0.911014 36.7004L0.874023 35.8142ZM73.2983 36.1053L73.2662 37.1459L73.1391 38.1109L72.9429 39.0759L72.6502 39.983L72.2947 40.8949L71.8717 41.7441L71.3893 42.5177L70.8698 43.2977L70.2538 43.978L69.6105 44.6214L68.8947 45.2052L68.1517 45.7568L67.3717 46.212L66.5241 46.6414L65.6797 46.9968L64.7726 47.2574L63.8334 47.4536L62.8587 47.5163L61.9195 47.4536L60.9545 47.3249L60.0152 47.066L59.1081 46.7443L58.201 46.3567L57.3567 45.9L58.0997 45.4175L58.7848 44.898L59.3992 44.3463L59.9509 43.7625L60.4334 43.1465L60.8564 42.5305L61.2118 41.8872L61.5335 41.231L62.016 39.9042L62.3376 38.5451L62.4985 37.1829L62.5628 35.8834L62.4985 34.5565L62.3071 33.1605L61.9468 31.7017L61.7249 30.9908L61.3951 30.2751L61.0445 29.5594L60.6264 28.8711L60.1439 28.2277L59.5601 27.5844L58.9167 27.0006L58.2058 26.4489L57.3936 25.9343L56.5187 25.4775L58.1045 24.958L59.6968 24.6364L61.2182 24.4755L62.7413 24.4434L64.2001 24.6042L65.5639 24.9259L66.8908 25.3826L68.1211 25.997L69.2245 26.7722L70.2313 27.6841L71.14 28.7199L71.5276 29.3037L71.883 29.9181L72.2047 30.6064L72.4958 31.2868L72.7242 31.9976L72.9525 32.7455L73.0796 33.5497L73.2115 34.3619L73.2758 35.2368L73.2983 36.1053Z" fill="#00BDB9"/>
</svg>
