<svg width="19" height="19" viewBox="0 0 19 19" fill="none" xmlns="http://www.w3.org/2000/svg">
<path fill-rule="evenodd" clip-rule="evenodd" d="M9.49993 14.2499C12.1543 14.2499 14.2499 12.0845 14.2499 9.49993C14.2499 6.91541 12.1194 4.75 9.49993 4.75C6.88048 4.75 4.75 6.91541 4.75 9.49993C4.75 12.0845 6.88048 14.2499 9.49993 14.2499Z" fill="#00BDB9"/>
<path fill-rule="evenodd" clip-rule="evenodd" d="M9.48729 15.6074C9.87138 15.6074 10.1787 16.036 10.1787 16.536V18.0717C10.1787 18.5717 9.87138 19.0002 9.48729 19.0002C9.12881 19.0002 8.82153 18.5717 8.82153 18.0717V16.536C8.82153 16.036 9.12881 15.6074 9.48729 15.6074Z" fill="#00BDB9"/>
<path fill-rule="evenodd" clip-rule="evenodd" d="M9.48729 3.39281C9.87138 3.39281 10.1787 2.96424 10.1787 2.46425V0.964276C10.1787 0.42857 9.87138 0 9.48729 0C9.12881 0 8.82153 0.42857 8.82153 0.964276V2.46425C8.82153 2.96424 9.12881 3.39281 9.48729 3.39281Z" fill="#00BDB9"/>
<path fill-rule="evenodd" clip-rule="evenodd" d="M5.16018 13.8497C5.51775 14.3035 5.51775 14.9635 5.16018 15.4172L4.18501 16.6547C3.85995 17.0672 3.30735 17.0672 2.98229 16.6547C2.62472 16.201 2.62472 15.541 2.98229 15.0872L3.92496 13.8497C4.28252 13.4785 4.83512 13.4785 5.16018 13.8497Z" fill="#00BDB9"/>
<path fill-rule="evenodd" clip-rule="evenodd" d="M13.8166 5.15994C14.1763 5.51751 14.6995 5.51751 15.0592 5.15994L16.0403 4.18476C16.3673 3.8597 16.3673 3.3071 16.0403 2.98204C15.6806 2.62448 15.1573 2.62448 14.7976 2.98204L13.8166 3.92471C13.4895 4.28228 13.4895 4.80238 13.8166 5.15994Z" fill="#00BDB9"/>
<path fill-rule="evenodd" clip-rule="evenodd" d="M3.39281 9.81993C3.39281 10.3961 2.96424 10.857 2.46425 10.857H0.964271C0.428564 10.857 0 10.3961 0 9.81993C0 9.2822 0.428564 8.82129 0.964271 8.82129H2.46425C2.96424 8.82129 3.39281 9.2822 3.39281 9.81993Z" fill="#00BDB9"/>
<path fill-rule="evenodd" clip-rule="evenodd" d="M15.6069 9.81993C15.6069 10.3961 16.0355 10.857 16.5355 10.857H18.0712C18.5712 10.857 18.9997 10.3961 18.9997 9.81993C18.9997 9.2822 18.5712 8.82129 18.0712 8.82129H16.5355C16.0355 8.82129 15.6069 9.2822 15.6069 9.81993Z" fill="#00BDB9"/>
<path fill-rule="evenodd" clip-rule="evenodd" d="M5.18235 5.15994C4.85435 5.51751 4.29674 5.51751 3.93593 5.15994L2.98472 4.18476C2.62391 3.8597 2.62391 3.3071 2.98472 2.98204C3.31272 2.62448 3.87033 2.62448 4.19834 2.98204L5.18235 3.92471C5.51036 4.28228 5.51036 4.80238 5.18235 5.15994Z" fill="#00BDB9"/>
<path fill-rule="evenodd" clip-rule="evenodd" d="M13.8166 13.8497C13.4895 14.3035 13.4895 14.9635 13.8166 15.4172L14.7976 16.6547C15.1573 17.0672 15.6806 17.0672 16.0403 16.6547C16.3673 16.201 16.3673 15.541 16.0403 15.0872L15.0592 13.8497C14.6995 13.4785 14.1436 13.4785 13.8166 13.8497Z" fill="#00BDB9"/>
</svg>
