<svg width="20" height="20" viewBox="0 0 20 20" fill="none" xmlns="http://www.w3.org/2000/svg">
<path d="M0.898775 0H3.44046C4.17609 0 4.8732 0.535947 5.06193 1.26789L6.02739 4.99559H19.1572C19.4021 4.99559 19.6251 5.09859 19.785 5.28016C19.9448 5.46173 20.0196 5.70145 19.9956 5.95247L19.3123 13.0949C19.2652 13.5867 18.8362 14 18.3562 14H7.36654C6.90202 14 6.44307 13.6259 6.32175 13.1643L5.03922 8.27597C5.00369 8.21023 4.97523 8.14886 4.95564 8.07276L3.34826 1.85022H0.898716C0.402384 1.85022 0 1.43602 0 0.92511C0 0.414203 0.402384 0 0.898775 0Z" fill="#00BDB9"/>
<path d="M6.90529 15H19.0948C19.5947 15 20 15.4289 20 15.9578C20 16.4868 19.5947 16.9157 19.0948 16.9157H18.565C18.6934 17.1976 18.7654 17.5136 18.7654 17.847C18.7654 19.0341 17.8526 20 16.7307 20C15.6088 20 14.696 19.0342 14.696 17.847C14.696 17.5136 14.768 17.1976 14.8964 16.9157H10.8692C10.9977 17.1976 11.0696 17.5136 11.0696 17.847C11.0696 19.0341 10.1569 20 9.03502 20C7.9131 20 7.00033 19.0342 7.00033 17.847C7.00033 17.5136 7.07232 17.1976 7.20073 16.9157H6.90516C6.40527 16.9157 6 16.4868 6 15.9578C6 15.4289 6.40539 15 6.90529 15Z" fill="#00BDB9"/>
</svg>
