<svg width="14" height="20" viewBox="0 0 14 20" fill="none" xmlns="http://www.w3.org/2000/svg">
<g opacity="0.4">
<path fill-rule="evenodd" clip-rule="evenodd" d="M11.7135 11.6693C10.9273 10.3701 10.0429 9.22087 9.60065 8.67123C9.55152 8.62126 9.45324 8.57129 9.40411 8.57129C9.30584 8.57129 9.20756 8.62126 9.15843 8.67123C8.71621 9.22087 7.83177 10.3701 7.09474 11.6693C6.06289 13.4182 5.57153 14.7673 5.57153 15.8166C5.57153 17.9653 7.34042 19.7141 9.45325 19.7141C11.5661 19.7141 13.2858 17.9653 13.2858 15.8166C13.1875 14.7173 12.6471 13.3682 11.7135 11.6693ZM9.89546 18.315C9.64978 18.365 9.40411 18.365 9.20757 18.365C7.7335 18.365 6.55424 17.2657 6.55424 15.9166C6.55424 15.6168 6.65252 15.217 6.79992 14.7673C6.84906 14.6674 6.8982 14.6674 6.99647 14.6674C7.0456 14.6674 7.09474 14.7673 7.09474 14.8173C7.09474 14.9172 7.09474 14.9672 7.09474 15.0671C7.09474 16.5162 8.27399 17.7654 9.79719 17.9153C9.89546 17.9153 9.9446 17.9653 9.9446 18.0652C9.99374 18.2151 9.9446 18.2651 9.89546 18.315Z" fill="#00BDB9"/>
<path fill-rule="evenodd" clip-rule="evenodd" d="M6.52152 3.13393C5.78449 1.84056 4.85091 0.696428 4.45783 0.149234C4.40869 0.0497445 4.31042 0 4.21215 0C4.16301 0 4.06475 0.0497445 4.01561 0.149234C3.52425 0.696428 2.68895 1.84056 1.90278 3.13393C0.969202 4.82526 0.428711 6.21811 0.428711 7.26276C0.428711 9.40179 2.19759 11.1429 4.26129 11.1429C6.37412 11.1429 8.143 9.40179 8.143 7.26276C8.04473 6.21811 7.55337 4.82526 6.52152 3.13393ZM4.70351 9.70025C4.50696 9.75 4.26129 9.79974 4.01561 9.79974C2.59068 9.79974 1.41142 8.70536 1.41142 7.3125C1.41142 7.01403 1.50969 6.61607 1.6571 6.16837C1.70624 6.11862 1.75537 6.06888 1.85364 6.11862C1.90278 6.11862 1.95191 6.16837 1.95191 6.26786C1.95191 6.3176 1.95191 6.41709 1.95191 6.51658C1.95191 7.95918 3.13116 9.20281 4.65437 9.35204C4.7035 9.35204 4.80178 9.40178 4.80178 9.45153C4.90005 9.65051 4.80178 9.70025 4.70351 9.70025Z" fill="#00BDB9"/>
<path fill-rule="evenodd" clip-rule="evenodd" d="M11.7135 11.6693C10.9273 10.3701 10.0429 9.22087 9.60065 8.67123C9.55152 8.62126 9.45324 8.57129 9.40411 8.57129C9.30584 8.57129 9.20756 8.62126 9.15843 8.67123C8.71621 9.22087 7.83177 10.3701 7.09474 11.6693C6.06289 13.4182 5.57153 14.7673 5.57153 15.8166C5.57153 17.9653 7.34042 19.7141 9.45325 19.7141C11.5661 19.7141 13.2858 17.9653 13.2858 15.8166C13.1875 14.7173 12.6471 13.3682 11.7135 11.6693ZM9.89546 18.315C9.64978 18.365 9.40411 18.365 9.20757 18.365C7.7335 18.365 6.55424 17.2657 6.55424 15.9166C6.55424 15.6168 6.65252 15.217 6.79992 14.7673C6.84906 14.6674 6.8982 14.6674 6.99647 14.6674C7.0456 14.6674 7.09474 14.7673 7.09474 14.8173C7.09474 14.9172 7.09474 14.9672 7.09474 15.0671C7.09474 16.5162 8.27399 17.7654 9.79719 17.9153C9.89546 17.9153 9.9446 17.9653 9.9446 18.0652C9.99374 18.2151 9.9446 18.2651 9.89546 18.315Z" fill="#00BDB9"/>
<path fill-rule="evenodd" clip-rule="evenodd" d="M6.52152 3.13393C5.78449 1.84056 4.85091 0.696428 4.45783 0.149234C4.40869 0.0497445 4.31042 0 4.21215 0C4.16301 0 4.06475 0.0497445 4.01561 0.149234C3.52425 0.696428 2.68895 1.84056 1.90278 3.13393C0.969202 4.82526 0.428711 6.21811 0.428711 7.26276C0.428711 9.40179 2.19759 11.1429 4.26129 11.1429C6.37412 11.1429 8.143 9.40179 8.143 7.26276C8.04473 6.21811 7.55337 4.82526 6.52152 3.13393ZM4.70351 9.70025C4.50696 9.75 4.26129 9.79974 4.01561 9.79974C2.59068 9.79974 1.41142 8.70536 1.41142 7.3125C1.41142 7.01403 1.50969 6.61607 1.6571 6.16837C1.70624 6.11862 1.75537 6.06888 1.85364 6.11862C1.90278 6.11862 1.95191 6.16837 1.95191 6.26786C1.95191 6.3176 1.95191 6.41709 1.95191 6.51658C1.95191 7.95918 3.13116 9.20281 4.65437 9.35204C4.7035 9.35204 4.80178 9.40178 4.80178 9.45153C4.90005 9.65051 4.80178 9.70025 4.70351 9.70025Z" fill="#00BDB9"/>
</g>
</svg>
