<svg width="15" height="15" viewBox="0 0 15 15" fill="none" xmlns="http://www.w3.org/2000/svg">
<path fill-rule="evenodd" clip-rule="evenodd" d="M11.6108 0.274052C11.2819 -0.0913507 10.7338 -0.0913507 10.3684 0.274052L10.0396 0.566381L14.3878 4.91467L14.7167 4.62236C15.0821 4.25695 15.0821 3.70885 14.7167 3.34345L11.6108 0.274052Z" fill="#00BDB9"/>
<path fill-rule="evenodd" clip-rule="evenodd" d="M13.036 6.66859C13.2553 6.88783 13.6938 6.88783 13.9496 6.66859C14.2419 6.37626 14.2419 5.97433 13.9496 5.71855L9.2724 1.04138C9.05316 0.822143 8.61467 0.822143 8.35889 1.04138C8.06657 1.33371 8.06657 1.69911 8.35889 1.99143L13.036 6.66859Z" fill="#00BDB9"/>
<path fill-rule="evenodd" clip-rule="evenodd" d="M11.4646 8.20374C11.7569 8.42298 12.1223 8.42298 12.4146 8.20374C12.6339 7.91142 12.6339 7.54601 12.4146 7.25369L7.73749 2.57654C7.51824 2.3573 7.07976 2.3573 6.82398 2.57654C6.53166 2.86886 6.53166 3.27081 6.82398 3.52659L11.4646 8.20374Z" fill="#00BDB9"/>
<path fill-rule="evenodd" clip-rule="evenodd" d="M0.721673 14.8902L7.88357 7.72833L9.16248 8.9707C9.49134 9.3361 10.0394 9.3361 10.4048 8.9707L10.7337 8.67837L6.34888 4.33008L6.02001 4.65894C5.65461 4.9878 5.65461 5.53591 6.02001 5.90132L7.26238 7.14368L0.137026 14.269C-0.0456754 14.4517 -0.0456754 14.7441 0.137026 14.8902C0.283187 15.0364 0.575512 15.0364 0.721673 14.8902Z" fill="#00BDB9"/>
<path fill-rule="evenodd" clip-rule="evenodd" d="M14.0954 7.58203C13.9127 7.65511 13.6934 7.7282 13.4742 7.7282C13.4742 8.13014 13.328 8.53209 13.0357 8.82441C12.7069 9.11673 12.378 9.26289 11.9395 9.26289C11.7934 9.26289 11.5741 9.22635 11.4279 9.18981L11.026 9.59175C10.3317 10.286 9.19899 10.286 8.54127 9.59175L7.99316 9.04364V12.7708C7.99316 13.5381 8.57781 14.0862 9.30862 14.0862C10.0029 14.0862 10.6241 13.5381 10.6241 12.7708V11.0168C10.6241 10.7976 10.8068 10.5783 11.0625 10.5783C11.3549 10.5783 11.5376 10.761 11.5376 11.0168C11.5376 11.7111 12.0857 12.3323 12.853 12.3323C13.5473 12.3323 14.1685 11.7476 14.1685 11.0168V7.58203H14.0954Z" fill="#00BDB9"/>
</svg>
