<svg width="20" height="20" viewBox="0 0 20 20" fill="none" xmlns="http://www.w3.org/2000/svg">
<g opacity="0.4">
<path fill-rule="evenodd" clip-rule="evenodd" d="M13.3797 5.84708C12.5111 4.97511 11.3027 4.44434 9.98099 4.44434C8.65928 4.44434 7.45085 4.97511 6.5823 5.84708C5.71375 6.71905 5.18506 7.93223 5.18506 9.25914C5.18506 10.5861 5.71375 11.7992 6.5823 12.6712C7.45085 13.5432 8.65928 14.0739 9.98099 14.0739C11.3027 14.0739 12.5111 13.5432 13.3797 12.6712C14.2482 11.7992 14.8147 10.5861 14.8147 9.25914C14.8147 7.93223 14.286 6.71905 13.3797 5.84708ZM12.4734 11.7613C11.8314 12.3679 10.9628 12.747 9.98099 12.747C9.03691 12.747 8.13059 12.3679 7.52638 11.7613C6.88441 11.1168 6.50677 10.2069 6.50677 9.25914C6.50677 8.31135 6.88441 7.40146 7.52638 6.75696C8.13059 6.15037 9.03691 5.77125 9.98099 5.77125C10.9628 5.77125 11.8314 6.15037 12.4734 6.75696C13.0776 7.40146 13.4552 8.31135 13.4552 9.25914C13.4552 10.2069 13.0776 11.1168 12.4734 11.7613Z" fill="#00BDB9"/>
<path fill-rule="evenodd" clip-rule="evenodd" d="M19.2677 8.88965H17.0283C16.5976 8.88965 16.2961 9.23823 16.2961 9.63039C16.2961 10.0225 16.6407 10.3711 17.0283 10.3711H19.2677C19.6553 10.3711 19.9998 10.0225 19.9998 9.63039C19.9998 9.23823 19.6553 8.88965 19.2677 8.88965Z" fill="#00BDB9"/>
<path fill-rule="evenodd" clip-rule="evenodd" d="M10 15.5557C9.80393 15.5557 9.62964 15.9042 9.62964 16.2964V18.5186C9.62964 18.9543 9.82572 19.2594 10 19.2594C10.2179 19.2594 10.3704 18.9108 10.3704 18.5186V16.2964C10.3704 15.8607 10.2179 15.5557 10 15.5557Z" fill="#00BDB9"/>
<path fill-rule="evenodd" clip-rule="evenodd" d="M16.8316 15.3917L15.274 14.2171C15.0635 14.0266 14.5583 14.0266 14.2637 14.2171C14.0111 14.4076 14.0111 14.7568 14.2637 14.979L15.8213 16.1536C16.0739 16.3441 16.537 16.3441 16.8316 16.1536C17.1263 15.9631 17.0842 15.5822 16.8316 15.3917Z" fill="#00BDB9"/>
<path fill-rule="evenodd" clip-rule="evenodd" d="M10 0C9.80393 0 9.62964 0.278871 9.62964 0.592596V2.37037C9.62964 2.71896 9.82572 2.96296 10 2.96296C10.2179 2.96296 10.3704 2.6841 10.3704 2.37037V0.592596C10.3704 0.244013 10.2179 0 10 0Z" fill="#00BDB9"/>
<path fill-rule="evenodd" clip-rule="evenodd" d="M16.8507 2.41313C16.6021 2.15916 16.1462 2.15916 15.8561 2.41313L14.3229 3.97926C13.9913 4.23322 13.9913 4.69884 14.3229 4.99514C14.5301 5.24911 15.0273 5.24911 15.3174 4.99514L16.8507 3.429C17.0993 3.17503 17.0993 2.70943 16.8507 2.41313Z" fill="#00BDB9"/>
<path fill-rule="evenodd" clip-rule="evenodd" d="M2.96296 8.88965H0.740745C0.305016 8.88965 0 9.23823 0 9.63039C0 10.0225 0.348589 10.3711 0.740745 10.3711H2.96296C3.39869 10.3711 3.7037 10.0225 3.7037 9.63039C3.7037 9.23823 3.39869 8.88965 2.96296 8.88965Z" fill="#00BDB9"/>
<path fill-rule="evenodd" clip-rule="evenodd" d="M5.73537 14.2163C5.4814 14.0269 5.01579 14.0269 4.7195 14.2163L3.15337 15.3845C2.8994 15.574 2.8994 15.9213 3.15337 16.1423C3.40733 16.3633 3.87294 16.3317 4.16924 16.1423L5.73537 14.9741C5.98934 14.7531 5.98934 14.4057 5.73537 14.2163Z" fill="#00BDB9"/>
<path fill-rule="evenodd" clip-rule="evenodd" d="M5.73537 3.97926L4.16924 2.41313C3.91527 2.15916 3.44966 2.15916 3.15337 2.41313C2.8994 2.6671 2.8994 3.1327 3.15337 3.429L4.7195 4.99514C4.97347 5.24911 5.43908 5.24911 5.73537 4.99514C5.98934 4.69884 5.98934 4.27555 5.73537 3.97926Z" fill="#00BDB9"/>
</g>
</svg>
