<svg width="11" height="21" viewBox="0 0 11 21" fill="none" xmlns="http://www.w3.org/2000/svg">
<g opacity="0.4">
<path fill-rule="evenodd" clip-rule="evenodd" d="M10.2857 5.14258C7.42424 5.14258 5.14282 7.46267 5.14282 10.2854C5.14282 13.1469 7.46291 15.4283 10.2857 15.4283V5.14258Z" fill="#00BDB9"/>
<path fill-rule="evenodd" clip-rule="evenodd" d="M10.2856 20.5719C9.49434 20.5719 8.81616 20.0979 8.81616 19.5449V17.9254C8.81616 17.3329 9.49434 16.8984 10.2856 16.8984V20.5719Z" fill="#00BDB9"/>
<path fill-rule="evenodd" clip-rule="evenodd" d="M10.2856 0C9.49434 0 8.81616 0.473997 8.81616 1.02699V2.64648C8.81616 3.23898 9.49434 3.67348 10.2856 3.67348V0Z" fill="#00BDB9"/>
<path fill-rule="evenodd" clip-rule="evenodd" d="M5.60789 14.9664C5.96737 15.3655 5.96737 15.946 5.60789 16.3089L4.56538 17.361C4.16995 17.7238 3.59478 17.7238 3.23529 17.361C2.83986 16.9982 2.83986 16.4177 3.23529 16.0186L4.2778 14.9664C4.63728 14.6036 5.21246 14.6036 5.60789 14.9664Z" fill="#00BDB9"/>
<path fill-rule="evenodd" clip-rule="evenodd" d="M3.67348 10.2855C3.67348 10.6811 3.23898 11.0202 2.64648 11.0202H1.02699C0.473996 11.0202 0 10.6811 0 10.2855C0 9.88987 0.473996 9.55078 1.02699 9.55078H2.64648C3.23898 9.55078 3.67348 9.88987 3.67348 10.2855Z" fill="#00BDB9"/>
<path fill-rule="evenodd" clip-rule="evenodd" d="M5.60789 5.60764C5.21246 5.96713 4.63728 5.96713 4.2778 5.60764L3.23529 4.56514C2.83986 4.16971 2.83986 3.59453 3.23529 3.23505C3.59478 2.83962 4.16995 2.83962 4.56538 3.23505L5.60789 4.27755C5.96737 4.63704 5.96737 5.21221 5.60789 5.60764Z" fill="#00BDB9"/>
<path fill-rule="evenodd" clip-rule="evenodd" d="M10.2857 5.14258C7.42424 5.14258 5.14282 7.46267 5.14282 10.2854C5.14282 13.1469 7.46291 15.4283 10.2857 15.4283V5.14258Z" fill="#00BDB9"/>
<path fill-rule="evenodd" clip-rule="evenodd" d="M10.2856 20.5719C9.49434 20.5719 8.81616 20.0979 8.81616 19.5449V17.9254C8.81616 17.3329 9.49434 16.8984 10.2856 16.8984V20.5719Z" fill="#00BDB9"/>
<path fill-rule="evenodd" clip-rule="evenodd" d="M10.2856 0C9.49434 0 8.81616 0.473997 8.81616 1.02699V2.64648C8.81616 3.23898 9.49434 3.67348 10.2856 3.67348V0Z" fill="#00BDB9"/>
<path fill-rule="evenodd" clip-rule="evenodd" d="M5.60789 14.9664C5.96737 15.3655 5.96737 15.946 5.60789 16.3089L4.56538 17.361C4.16995 17.7238 3.59478 17.7238 3.23529 17.361C2.83986 16.9982 2.83986 16.4177 3.23529 16.0186L4.2778 14.9664C4.63728 14.6036 5.21246 14.6036 5.60789 14.9664Z" fill="#00BDB9"/>
<path fill-rule="evenodd" clip-rule="evenodd" d="M3.67348 10.2855C3.67348 10.6811 3.23898 11.0202 2.64648 11.0202H1.02699C0.473996 11.0202 0 10.6811 0 10.2855C0 9.88987 0.473996 9.55078 1.02699 9.55078H2.64648C3.23898 9.55078 3.67348 9.88987 3.67348 10.2855Z" fill="#00BDB9"/>
<path fill-rule="evenodd" clip-rule="evenodd" d="M5.60789 5.60764C5.21246 5.96713 4.63728 5.96713 4.2778 5.60764L3.23529 4.56514C2.83986 4.16971 2.83986 3.59453 3.23529 3.23505C3.59478 2.83962 4.16995 2.83962 4.56538 3.23505L5.60789 4.27755C5.96737 4.63704 5.96737 5.21221 5.60789 5.60764Z" fill="#00BDB9"/>
</g>
</svg>
