<svg width="18" height="21" viewBox="0 0 18 21" fill="none" xmlns="http://www.w3.org/2000/svg">
<path fill-rule="evenodd" clip-rule="evenodd" d="M15.5704 3.52672C14.7842 2.22756 13.8998 1.07829 13.4576 0.528646C13.4084 0.42871 13.3102 0.428711 13.261 0.428711C13.1628 0.428711 13.0645 0.42871 13.0154 0.528646C12.5731 1.07829 11.6887 2.22756 10.9517 3.52672C9.91982 5.22564 9.42847 6.62474 9.42847 7.67407C9.42847 9.82269 11.1973 11.5716 13.3102 11.5716C15.423 11.5716 17.1428 9.82269 17.1428 7.67407C17.0445 6.62474 16.504 5.17567 15.5704 3.52672ZM13.7033 10.1725C13.5067 10.2224 13.261 10.2224 13.0154 10.2224C11.5904 10.2224 10.4112 9.12314 10.4112 7.774C10.4112 7.4742 10.5094 7.07445 10.6569 6.62474C10.706 6.5248 10.7551 6.5248 10.8534 6.5248C10.9025 6.5248 10.9517 6.57477 10.9517 6.67471C10.9517 6.77464 10.9517 6.82461 10.9517 6.92455C10.9517 8.37362 12.1309 9.62282 13.6541 9.77272C13.7033 9.77272 13.8015 9.82269 13.8015 9.92263C13.8507 10.0725 13.8015 10.1225 13.7033 10.1725Z" fill="#00BDB9"/>
<path fill-rule="evenodd" clip-rule="evenodd" d="M11.2848 12.9554C10.4986 11.6563 9.61416 10.507 9.17194 9.95736C9.12281 9.90739 9.02453 9.85742 8.9754 9.85742C8.87713 9.85742 8.77885 9.90739 8.72972 9.95736C8.2875 10.507 7.40306 11.6563 6.66603 12.9554C5.63418 14.7043 5.14282 16.0534 5.14282 17.1028C5.14282 19.2514 6.91171 21.0003 9.02453 21.0003C11.1374 21.0003 12.8571 19.2514 12.8571 17.1028C12.7588 16.0035 12.2183 14.6543 11.2848 12.9554ZM9.46675 19.6012C9.22107 19.6511 8.9754 19.6511 8.77886 19.6511C7.30479 19.6511 6.12553 18.5518 6.12553 17.2027C6.12553 16.9029 6.2238 16.5032 6.37121 16.0535C6.42035 15.9535 6.46949 15.9535 6.56776 15.9535C6.61689 15.9535 6.66603 16.0534 6.66603 16.1034C6.66603 16.2034 6.66603 16.2533 6.66603 16.3533C6.66603 17.8023 7.84528 19.0515 9.36848 19.2014C9.46675 19.2014 9.51589 19.2514 9.51589 19.3513C9.56503 19.5012 9.51589 19.5512 9.46675 19.6012Z" fill="#00BDB9"/>
<path fill-rule="evenodd" clip-rule="evenodd" d="M6.09281 4.42006C5.35578 3.12669 4.4222 1.98256 4.02912 1.43537C3.97998 1.33588 3.88171 1.28613 3.78344 1.28613C3.7343 1.28613 3.63604 1.33588 3.5869 1.43537C3.09554 1.98256 2.26024 3.12669 1.47407 4.42006C0.540492 6.11139 0 7.50425 0 8.54889C0 10.6879 1.76888 12.429 3.83258 12.429C5.94541 12.429 7.71429 10.6879 7.71429 8.54889C7.61601 7.50425 7.12466 6.11139 6.09281 4.42006ZM4.27479 10.9864C4.07825 11.0361 3.83258 11.0859 3.5869 11.0859C2.16197 11.0859 0.982712 9.99149 0.982712 8.59863C0.982712 8.30016 1.08098 7.9022 1.22839 7.4545C1.27753 7.40476 1.32666 7.35501 1.42493 7.40476C1.47406 7.40476 1.5232 7.4545 1.5232 7.55399C1.5232 7.60374 1.5232 7.70323 1.5232 7.80271C1.5232 9.24532 2.70245 10.4889 4.22566 10.6382C4.27479 10.6382 4.37306 10.6879 4.37306 10.7377C4.47134 10.9366 4.37307 10.9864 4.27479 10.9864Z" fill="#00BDB9"/>
<path fill-rule="evenodd" clip-rule="evenodd" d="M15.5704 3.52672C14.7842 2.22756 13.8998 1.07829 13.4576 0.528646C13.4084 0.42871 13.3102 0.428711 13.261 0.428711C13.1628 0.428711 13.0645 0.42871 13.0154 0.528646C12.5731 1.07829 11.6887 2.22756 10.9517 3.52672C9.91982 5.22564 9.42847 6.62474 9.42847 7.67407C9.42847 9.82269 11.1973 11.5716 13.3102 11.5716C15.423 11.5716 17.1428 9.82269 17.1428 7.67407C17.0445 6.62474 16.504 5.17567 15.5704 3.52672ZM13.7033 10.1725C13.5067 10.2224 13.261 10.2224 13.0154 10.2224C11.5904 10.2224 10.4112 9.12314 10.4112 7.774C10.4112 7.4742 10.5094 7.07445 10.6569 6.62474C10.706 6.5248 10.7551 6.5248 10.8534 6.5248C10.9025 6.5248 10.9517 6.57477 10.9517 6.67471C10.9517 6.77464 10.9517 6.82461 10.9517 6.92455C10.9517 8.37362 12.1309 9.62282 13.6541 9.77272C13.7033 9.77272 13.8015 9.82269 13.8015 9.92263C13.8507 10.0725 13.8015 10.1225 13.7033 10.1725Z" fill="#00BDB9"/>
<path fill-rule="evenodd" clip-rule="evenodd" d="M11.2848 12.9554C10.4986 11.6563 9.61416 10.507 9.17194 9.95736C9.12281 9.90739 9.02453 9.85742 8.9754 9.85742C8.87713 9.85742 8.77885 9.90739 8.72972 9.95736C8.2875 10.507 7.40306 11.6563 6.66603 12.9554C5.63418 14.7043 5.14282 16.0534 5.14282 17.1028C5.14282 19.2514 6.91171 21.0003 9.02453 21.0003C11.1374 21.0003 12.8571 19.2514 12.8571 17.1028C12.7588 16.0035 12.2183 14.6543 11.2848 12.9554ZM9.46675 19.6012C9.22107 19.6511 8.9754 19.6511 8.77886 19.6511C7.30479 19.6511 6.12553 18.5518 6.12553 17.2027C6.12553 16.9029 6.2238 16.5032 6.37121 16.0535C6.42035 15.9535 6.46949 15.9535 6.56776 15.9535C6.61689 15.9535 6.66603 16.0534 6.66603 16.1034C6.66603 16.2034 6.66603 16.2533 6.66603 16.3533C6.66603 17.8023 7.84528 19.0515 9.36848 19.2014C9.46675 19.2014 9.51589 19.2514 9.51589 19.3513C9.56503 19.5012 9.51589 19.5512 9.46675 19.6012Z" fill="#00BDB9"/>
<path fill-rule="evenodd" clip-rule="evenodd" d="M6.09281 4.42006C5.35578 3.12669 4.4222 1.98256 4.02912 1.43537C3.97998 1.33588 3.88171 1.28613 3.78344 1.28613C3.7343 1.28613 3.63604 1.33588 3.5869 1.43537C3.09554 1.98256 2.26024 3.12669 1.47407 4.42006C0.540492 6.11139 0 7.50425 0 8.54889C0 10.6879 1.76888 12.429 3.83258 12.429C5.94541 12.429 7.71429 10.6879 7.71429 8.54889C7.61601 7.50425 7.12466 6.11139 6.09281 4.42006ZM4.27479 10.9864C4.07825 11.0361 3.83258 11.0859 3.5869 11.0859C2.16197 11.0859 0.982712 9.99149 0.982712 8.59863C0.982712 8.30016 1.08098 7.9022 1.22839 7.4545C1.27753 7.40476 1.32666 7.35501 1.42493 7.40476C1.47406 7.40476 1.5232 7.4545 1.5232 7.55399C1.5232 7.60374 1.5232 7.70323 1.5232 7.80271C1.5232 9.24532 2.70245 10.4889 4.22566 10.6382C4.27479 10.6382 4.37306 10.6879 4.37306 10.7377C4.47134 10.9366 4.37307 10.9864 4.27479 10.9864Z" fill="#00BDB9"/>
</svg>
