<svg width="16" height="14" viewBox="0 0 16 14" fill="none" xmlns="http://www.w3.org/2000/svg">
<path d="M13.5713 8.28711C14.3997 8.28711 15.0713 7.61556 15.0713 6.78711C15.0713 5.95866 14.3997 5.28711 13.5713 5.28711M13.5713 8.28711V5.28711M13.5713 8.28711C12.7428 8.28711 12.0713 7.61556 12.0713 6.78711C12.0713 5.95866 12.7428 5.28711 13.5713 5.28711M13.5713 8.28711V12.7871M13.5713 5.28711V0.787109M8.32129 9.78711C7.49284 9.78711 6.82129 10.4587 6.82129 11.2871C6.82129 12.1156 7.49284 12.7871 8.32129 12.7871C9.14974 12.7871 9.82129 12.1156 9.82129 11.2871C9.82129 10.4587 9.14974 9.78711 8.32129 9.78711ZM8.32129 9.78711V0.787109M3.07129 3.78711C3.89972 3.78711 4.57129 3.11554 4.57129 2.28711C4.57129 1.45868 3.89972 0.787109 3.07129 0.787109C2.24286 0.787109 1.57129 1.45868 1.57129 2.28711C1.57129 3.11554 2.24286 3.78711 3.07129 3.78711ZM3.07129 3.78711V12.7871" stroke="#25C5C2" stroke-width="1.5" stroke-linecap="round"/>
</svg>
