<svg width="19" height="17" viewBox="0 0 19 17" fill="none" xmlns="http://www.w3.org/2000/svg">
<path d="M15.8641 10.5799C16.8557 10.5799 17.6594 9.77613 17.6594 8.7846C17.6594 7.79307 16.8557 6.98933 15.8641 6.98933M15.8641 10.5799V6.98933M15.8641 10.5799C14.8726 10.5799 14.0689 9.77613 14.0689 8.7846C14.0689 7.79307 14.8726 6.98933 15.8641 6.98933M15.8641 10.5799V15.9657M15.8641 6.98933V1.60352M9.58067 12.3751C8.58915 12.3751 7.7854 13.1789 7.7854 14.1704C7.7854 15.1619 8.58915 15.9657 9.58067 15.9657C10.5722 15.9657 11.3759 15.1619 11.3759 14.1704C11.3759 13.1789 10.5722 12.3751 9.58067 12.3751ZM9.58067 12.3751V1.60352M3.29722 5.19406C4.28873 5.19406 5.0925 4.39029 5.0925 3.39879C5.0925 2.40729 4.28873 1.60352 3.29722 1.60352C2.30572 1.60352 1.50195 2.40729 1.50195 3.39879C1.50195 4.39029 2.30572 5.19406 3.29722 5.19406ZM3.29722 5.19406V15.9657" stroke="#B2EBEA" stroke-width="1.5" stroke-linecap="round"/>
</svg>
