<svg width="24" height="21" viewBox="0 0 24 21" fill="none" xmlns="http://www.w3.org/2000/svg">
<path d="M1.36472 10.4395L6.65767 12.415L8.70637 19.0036C8.83746 19.4256 9.35346 19.5816 9.69596 19.3016L12.6463 16.8964C12.9556 16.6444 13.3961 16.6318 13.7193 16.8664L19.0407 20.7299C19.4071 20.9962 19.9262 20.7954 20.0181 20.3527L23.9163 1.60148C24.0166 1.11787 23.5414 0.714423 23.0809 0.892524L1.35852 9.27239C0.822452 9.47912 0.827123 10.2381 1.36472 10.4395ZM8.3762 11.3634L18.7206 4.99229C18.9065 4.87813 19.0978 5.12951 18.9381 5.27759L10.401 13.2133C10.1009 13.4926 9.90737 13.8664 9.85254 14.2722L9.56173 16.4273C9.52322 16.715 9.11901 16.7436 9.0396 16.4651L7.92115 12.5352C7.79305 12.0869 7.97973 11.6081 8.3762 11.3634Z" fill="#AABFBF"/>
</svg>
