<svg width="23" height="21" viewBox="0 0 23 21" fill="none" xmlns="http://www.w3.org/2000/svg">
<g opacity="0.7">
<path fill-rule="evenodd" clip-rule="evenodd" d="M5.48826 9.83877C5.48826 9.32323 5.49513 8.80769 5.50202 8.28976C5.50552 8.02718 5.50902 7.76399 5.51164 7.49987C5.51164 4.66212 7.47565 2.5931 10.1879 2.5931H13.6716C16.3838 2.5931 18.3479 4.66212 18.3479 7.49987C18.3712 8.63661 18.379 9.77334 18.379 10.9183C18.379 12.0632 18.3712 13.2163 18.3479 14.353C18.3479 17.1907 16.3838 19.2598 13.6716 19.2598H10.1879C7.47565 19.2598 5.51164 17.1907 5.51164 14.3448C5.49606 13.2735 5.48047 12.1777 5.48047 11.0655L5.48826 9.83877ZM13.109 17.2933V17.4266C13.109 17.988 12.5902 18.4266 11.9297 18.4266C11.2851 18.4266 10.7505 17.988 10.7505 17.4266V17.2933C10.7505 16.7466 11.2851 16.2933 11.9297 16.2933C12.5902 16.2933 13.109 16.7466 13.109 17.2933ZM7.33851 7.96281C7.33359 8.29946 7.32869 8.63456 7.32869 8.96966L7.32312 9.76701C7.32312 10.4899 7.33425 11.2022 7.34539 11.8986C7.34539 13.7484 8.74825 15.0933 10.6855 15.0933H13.174C15.1112 15.0933 16.5141 13.7484 16.5141 11.9039C16.5308 11.165 16.5364 10.4155 16.5364 9.67133C16.5364 8.92713 16.5308 8.18826 16.5141 7.44938C16.5141 5.60484 15.1112 4.25998 13.174 4.25998H10.6855C8.74825 4.25998 7.34539 5.60484 7.34539 7.44938C7.34351 7.62105 7.34101 7.79213 7.33851 7.96281Z" fill="#E4EBEC"/>
</g>
</svg>
