<svg width="17" height="15" viewBox="0 0 17 15" fill="none" xmlns="http://www.w3.org/2000/svg">
<g clip-path="url(#clip0)">
<path fill-rule="evenodd" clip-rule="evenodd" d="M16.1247 2.58889C13.7387 3.80365 12.5458 5.23097 12.5458 6.87089C13.5627 6.99237 14.4037 7.42259 15.0686 8.16156C15.7335 8.90054 16.066 9.75592 16.066 10.7277C16.066 11.7603 15.7433 12.6308 15.0979 13.3394C14.4526 14.048 13.641 14.4023 12.6631 14.4023C11.5679 14.4023 10.6194 13.9418 9.81762 13.0206C9.01579 12.0994 8.61488 10.9808 8.61488 9.66482C8.61488 5.71686 10.7465 2.6294 15.0099 0.402344L16.1247 2.58889ZM7.7046 2.58889C5.29911 3.80365 4.09639 5.23097 4.09639 6.87089C5.1329 6.99237 5.98361 7.42259 6.64854 8.16156C7.31347 8.90054 7.64593 9.75592 7.64593 10.7277C7.64593 11.7603 7.31836 12.6308 6.66321 13.3394C6.00805 14.048 5.19157 14.4023 4.21373 14.4023C3.11855 14.4023 2.17495 13.9418 1.38289 13.0206C0.590844 12.0994 0.194824 10.9808 0.194824 9.66482C0.194824 5.71686 2.31671 2.6294 6.56053 0.402344L7.7046 2.58889Z" fill="#25C5C2"/>
</g>
<defs>
<clipPath id="clip0">
<rect width="16" height="14" fill="white" transform="translate(0.194824 0.402344)"/>
</clipPath>
</defs>
</svg>
