<svg width="14" height="5" viewBox="0 0 14 5" fill="none" xmlns="http://www.w3.org/2000/svg">
<path d="M0.905285 0H13.0948C13.5947 0 14 0.428852 14 0.95783C14 1.48681 13.5947 1.91566 13.0948 1.91566H12.565C12.6934 2.19764 12.7654 2.5136 12.7654 2.84699C12.7654 4.03412 11.8526 5 10.7307 5C9.60881 5 8.69604 4.03419 8.69604 2.84699C8.69604 2.5136 8.76803 2.19764 8.89644 1.91566H4.86924C4.99765 2.19764 5.06964 2.5136 5.06964 2.84699C5.06964 4.03412 4.15694 5 3.03502 5C1.9131 5 1.00033 4.03419 1.00033 2.84699C1.00033 2.5136 1.07232 2.19764 1.20073 1.91566H0.905165C0.405272 1.91566 0 1.48681 0 0.95783C0 0.428852 0.405393 0 0.905285 0Z" fill="#00BDB9"/>
</svg>
