<svg width="11" height="15" viewBox="0 0 11 15" fill="none" xmlns="http://www.w3.org/2000/svg">
<path fill-rule="evenodd" clip-rule="evenodd" d="M8.52349 4.16108C7.44966 2.41611 6.27516 0.90604 5.63758 0.167785C5.57047 0.0671141 5.4698 0 5.30201 0C5.13423 0 5.03355 0.0671141 4.96644 0.167785C4.36241 0.90604 3.15436 2.41611 2.08054 4.16108C0.738254 6.44295 0 8.28859 0 9.73154C0 12.651 2.34899 15 5.26845 15C8.18792 15 10.5369 12.651 10.5369 9.73154C10.604 8.32215 9.86577 6.47651 8.52349 4.16108ZM6.04027 13.0872C5.7047 13.1544 5.43624 13.1879 5.10067 13.1879C3.15436 13.1879 1.54362 11.7114 1.54362 9.86577C1.54362 9.42953 1.64429 8.92618 1.87919 8.35571C1.91275 8.25503 2.01342 8.22147 2.14765 8.22147C2.24832 8.25503 2.31544 8.3557 2.31544 8.42282C2.31544 8.55705 2.31544 8.69128 2.31544 8.79195C2.31544 10.8054 3.92617 12.4497 6.00671 12.6846C6.10738 12.6846 6.1745 12.7517 6.1745 12.8523C6.20805 12.9195 6.14094 13.0537 6.04027 13.0872Z" fill="#00BDB9"/>
</svg>
