<svg width="37" height="57" viewBox="0 0 37 57" fill="none" xmlns="http://www.w3.org/2000/svg">
<path d="M25.7913 45.082H23.8926C23.4009 45.082 23.0024 45.4846 23.0024 45.9814C23.0024 46.4782 23.4009 46.8807 23.8926 46.8807H25.7913C26.283 46.8807 26.6815 46.4782 26.6815 45.9814C26.6815 45.4846 26.283 45.082 25.7913 45.082Z" fill="#25C5C2"/>
<path d="M31.2866 32.6157C30.7984 32.5574 30.356 32.9103 30.2986 33.4037L29.7401 38.2003C29.6826 38.6935 30.0318 39.1405 30.5201 39.1985C30.5555 39.2027 30.5905 39.2048 30.6253 39.2048C31.0703 39.2048 31.4549 38.868 31.5081 38.4104L32.0666 33.6138C32.1242 33.1206 31.775 32.6736 31.2866 32.6157Z" fill="#25C5C2"/>
<path d="M36.1191 29.0749C35.9502 28.8829 35.7081 28.7731 35.4539 28.7731H35.227V18.1607C35.227 8.67245 27.5865 0.953125 18.195 0.953125C8.80352 0.953125 1.16297 8.67245 1.16297 18.1607V28.7731H0.93603C0.681796 28.7731 0.439669 28.8829 0.270891 29.0749C0.101996 29.2668 0.0222356 29.5224 0.0520268 29.7775L1.35465 40.9632C1.44117 41.7068 1.86514 42.3353 2.4606 42.7008C2.23913 43.1047 2.11249 43.5687 2.11249 44.0621C2.11249 44.8028 2.39722 45.4772 2.86142 45.9807C2.39722 46.4842 2.11249 47.1586 2.11249 47.8993C2.11249 48.7023 2.44719 49.4273 2.98225 49.9411C2.66463 50.4084 2.52078 50.9791 2.58713 51.5483L2.8708 53.9844C3.03601 55.4032 4.22695 56.4732 5.6409 56.4732H30.7491C32.163 56.4732 33.354 55.4032 33.5192 53.9844L33.8027 51.5483C33.8691 50.9791 33.7252 50.4085 33.4076 49.9411C33.9428 49.4274 34.2775 48.7023 34.2775 47.8993C34.2775 47.1586 33.9928 46.4842 33.5286 45.9807C33.9928 45.4772 34.2775 44.8028 34.2775 44.0621C34.2775 43.5687 34.151 43.1047 33.9295 42.701C34.525 42.3353 34.9489 41.7067 35.0354 40.9633L36.3379 29.7776C36.3677 29.5224 36.288 29.2667 36.1191 29.0749ZM2.94332 18.1607C2.94332 9.66425 9.7852 2.75183 18.195 2.75183C26.6048 2.75183 33.4467 9.66425 33.4467 18.1607V28.7731H27.7015C27.8284 28.5648 27.938 28.3443 28.0236 28.1113C29.5251 28.3686 31.0831 27.6784 31.8794 26.2849C32.6758 24.8913 32.4886 23.1827 31.5171 21.998C32.4886 20.8131 32.6758 19.1046 31.8794 17.7111C31.0831 16.3175 29.525 15.6272 28.0236 15.8845C27.4936 14.4421 26.1227 13.4241 24.5301 13.4241C23.7091 13.4241 22.9483 13.6961 22.33 14.1557C22.6913 13.145 22.6265 11.9906 22.058 10.9959C21.2617 9.6025 19.7035 8.9118 18.2022 9.16949C17.6722 7.72693 16.3012 6.70898 14.7085 6.70898C13.1158 6.70898 11.7448 7.72693 11.2148 9.16949C9.71387 8.91216 8.15547 9.6025 7.35906 10.9959C6.56277 12.3894 6.74983 14.0979 7.7213 15.2828C6.74983 16.4676 6.56265 18.1761 7.35906 19.5697C7.56463 19.9295 7.82884 20.2508 8.13601 20.5221C8.11381 20.5748 8.09055 20.627 8.07073 20.681C6.56918 20.4234 5.01125 21.114 4.21496 22.5075C3.41855 23.901 3.60561 25.6097 4.57732 26.7945C4.11467 27.3582 3.82376 28.0464 3.74068 28.773H2.94332V18.1607ZM8.63498 24.4262C7.83869 25.8196 8.02574 27.5283 8.99722 28.7131C8.98084 28.733 8.9666 28.7543 8.9507 28.7745C8.9412 28.7742 8.93206 28.7731 8.92245 28.7731H5.54441C5.65432 28.28 5.94985 27.836 6.38675 27.547C6.63802 27.3808 6.78947 27.0979 6.78947 26.7945C6.78947 26.4911 6.63814 26.2081 6.38675 26.0421C5.5177 25.4673 5.24104 24.3098 5.75686 23.407C6.27269 22.504 7.40321 22.1674 8.33066 22.6405C8.59866 22.7773 8.91687 22.7683 9.17704 22.6166C9.43709 22.4649 9.60397 22.1909 9.6207 21.8881C9.67874 20.8402 10.5327 20.0194 11.5645 20.0194C12.3601 20.0194 13.0634 20.514 13.3606 21.2381C12.9818 21.6193 12.6814 22.0813 12.4909 22.5997C10.9891 22.3421 9.43127 23.0327 8.63498 24.4262ZM9.53085 14.5304C8.6618 13.9556 8.38502 12.7982 8.90085 11.8952C9.41679 10.9925 10.5477 10.6559 11.4746 11.1289C11.7429 11.2655 12.0607 11.2566 12.321 11.1049C12.5811 10.9532 12.7479 10.6792 12.7647 10.3764C12.8228 9.3285 13.6767 8.50769 14.7085 8.50769C15.7402 8.50769 16.5942 9.3285 16.6523 10.3764C16.6691 10.6792 16.8359 10.9533 17.0959 11.1049C17.3561 11.2567 17.6742 11.2655 17.9423 11.1289C18.8696 10.6557 20 10.9924 20.5161 11.8952C21.032 12.7981 20.7554 13.9556 19.8862 14.5304C19.6349 14.6966 19.4835 14.9794 19.4835 15.2827C19.4835 15.5141 19.572 15.7331 19.7251 15.898C18.689 16.0933 17.7438 16.725 17.1804 17.7111C16.7312 18.4972 16.5959 19.3834 16.7369 20.2195C16.4932 20.1687 16.2421 20.1393 15.9841 20.1393C15.6058 20.1393 15.2406 20.1984 14.8955 20.3054C14.2755 19.0555 12.9973 18.2207 11.5644 18.2207C10.6728 18.2207 9.85084 18.5401 9.20683 19.074C9.08945 18.9548 8.98678 18.8205 8.90097 18.6704C8.38502 17.7675 8.66169 16.61 9.53097 16.0353C9.78224 15.8691 9.93369 15.5862 9.93369 15.2828C9.93369 14.9794 9.78224 14.6964 9.53085 14.5304ZM10.8065 27.9607C9.93748 27.3859 9.66082 26.2284 10.1766 25.3256C10.6926 24.4228 11.823 24.0859 12.7504 24.5591C13.0184 24.6959 13.3366 24.6869 13.5968 24.5352C13.8569 24.3835 14.0237 24.1095 14.0405 23.8068C14.0985 22.7588 14.9525 21.938 15.9843 21.938C17.016 21.938 17.87 22.7588 17.9281 23.8068C17.9449 24.1095 18.1117 24.3837 18.3717 24.5352C18.6318 24.687 18.9501 24.6959 19.2181 24.5591C20.1451 24.0863 21.2758 24.4225 21.7919 25.3256C22.3078 26.2284 22.0312 27.3859 21.1619 27.9607C20.9106 28.1269 20.7592 28.4098 20.7592 28.7131C20.7592 29.0165 20.9105 29.2995 21.1619 29.4656C22.0311 30.0403 22.3077 31.1978 21.7919 32.1007C21.2761 33.0035 20.1453 33.3403 19.2181 32.8671C18.9499 32.7305 18.6319 32.7392 18.3717 32.8911C18.1117 33.0427 17.9448 33.3167 17.9281 33.6195C17.87 34.6675 17.016 35.4883 15.9843 35.4883C14.9525 35.4883 14.0985 34.6675 14.0405 33.6195C14.0236 33.3167 13.8569 33.0426 13.5968 32.8911C13.4594 32.8108 13.3057 32.7705 13.1517 32.7705C13.0144 32.7705 12.8768 32.8027 12.7504 32.8671C11.8234 33.3405 10.6927 33.0037 10.1766 32.1007C9.6607 31.1979 9.93737 30.0403 10.8065 29.4656C11.0578 29.2994 11.2092 29.0165 11.2092 28.7131C11.2092 28.4098 11.0579 28.1268 10.8065 27.9607ZM23.2658 28.2968C23.9422 27.1965 24.0317 25.7855 23.4136 24.5796C23.7556 24.7312 24.1332 24.8159 24.53 24.8159C25.5221 24.8159 26.4474 24.2767 26.9449 23.4086C27.1912 22.9788 27.0459 22.4285 26.6206 22.1796C26.1951 21.9311 25.6505 22.0776 25.4041 22.5074C25.2239 22.8219 24.889 23.0172 24.5301 23.0172C23.9738 23.0172 23.5212 22.56 23.5212 21.998C23.5212 21.4359 23.9738 20.9787 24.5301 20.9787C25.0218 20.9787 25.4202 20.5762 25.4202 20.0794C25.4202 19.5826 25.0218 19.18 24.5301 19.18C22.9921 19.18 21.7409 20.4441 21.7409 21.998C21.7409 22.3628 21.8105 22.7111 21.936 23.0313C21.213 22.6215 20.3652 22.4622 19.5313 22.5926C19.5592 22.5607 19.5859 22.5272 19.6097 22.4906C19.879 22.0751 19.7637 21.5177 19.3523 21.2455C18.4833 20.6708 18.2066 19.5132 18.7224 18.6104C19.2384 17.7075 20.3688 17.3707 21.2962 17.8439C21.5641 17.9807 21.8823 17.9718 22.1426 17.8201C22.4027 17.6684 22.5695 17.3944 22.5863 17.0916C22.6443 16.0437 23.4983 15.2229 24.5301 15.2229C25.5618 15.2229 26.4158 16.0437 26.4739 17.0916C26.4907 17.3944 26.6575 17.6685 26.9175 17.8201C27.1776 17.9719 27.4959 17.9807 27.7639 17.8439C28.6909 17.3712 29.8216 17.7073 30.3377 18.6104C30.8536 19.5132 30.577 20.6708 29.7077 21.2455C29.4564 21.4117 29.305 21.6946 29.305 21.998C29.305 22.3014 29.4563 22.5844 29.7077 22.7504C30.5769 23.3252 30.8535 24.4826 30.3377 25.3855C29.8219 26.2884 28.6911 26.625 27.7639 26.1519C27.4957 26.0152 27.1777 26.0242 26.9175 26.1759C26.6575 26.3276 26.4906 26.6016 26.4739 26.9044C26.4158 27.9523 25.5618 28.7731 24.5301 28.7731C24.0636 28.7731 23.6159 28.6009 23.2658 28.2968ZM33.2674 40.7531C33.2349 41.0328 32.9999 41.244 32.721 41.244L31.4883 41.2441H29.5896C29.0979 41.2441 28.6994 41.6467 28.6994 42.1435C28.6994 42.6403 29.0979 43.0428 29.5896 43.0428H31.4883C32.0446 43.0428 32.4971 43.5001 32.4971 44.0621C32.4971 44.6241 32.0446 45.0814 31.4883 45.0814H29.5895C29.0977 45.0814 28.6993 45.4839 28.6993 45.9807C28.6993 46.4775 29.0977 46.8801 29.5895 46.8801H31.4883C32.0446 46.8801 32.4971 47.3373 32.4971 47.8993C32.4971 48.4614 32.0446 48.9186 31.4883 48.9186H29.5895C29.0977 48.9186 28.6993 49.3212 28.6993 49.818C28.6993 50.3148 29.0977 50.7173 29.5895 50.7173H31.4883C31.7032 50.7173 31.8381 50.8342 31.8993 50.9038C31.9607 50.9734 32.0598 51.1225 32.0347 51.3382L31.7511 53.7741C31.6912 54.2874 31.2605 54.6745 30.7491 54.6745H5.6409C5.12935 54.6745 4.69874 54.2874 4.63892 53.7743L4.35525 51.3382C4.33021 51.1225 4.42932 50.9734 4.49068 50.9038C4.55204 50.8342 4.68675 50.7173 4.9017 50.7173H25.7912C26.2829 50.7173 26.6813 50.3148 26.6813 49.818C26.6813 49.3212 26.2829 48.9186 25.7912 48.9186H4.9017C4.3454 48.9186 3.89296 48.4614 3.89296 47.8993C3.89296 47.3373 4.34552 46.8801 4.9017 46.8801H20.0937C20.5854 46.8801 20.9838 46.4775 20.9838 45.9807C20.9838 45.4839 20.5854 45.0814 20.0937 45.0814H4.9017C4.3454 45.0814 3.89296 44.6241 3.89296 44.0621C3.89296 43.5001 4.34552 43.0428 4.9017 43.0428H4.90182H25.7913C26.283 43.0428 26.6814 42.6403 26.6814 42.1435C26.6814 41.6467 26.283 41.2441 25.7913 41.2441H4.90182L3.66911 41.244C3.39007 41.244 3.15518 41.0328 3.12266 40.7531L1.93718 30.5718H4.63038C4.63465 30.5719 4.63892 30.5724 4.64331 30.5724C4.64557 30.5724 4.64794 30.5718 4.65032 30.5718H8.1798C8.06052 31.3842 8.2001 32.239 8.63498 33.0001C9.43127 34.3935 10.9893 35.0842 12.4907 34.8265C13.0207 36.269 14.3917 37.287 15.9844 37.287C17.5771 37.287 18.9481 36.269 19.478 34.8265C20.9796 35.0839 22.5375 34.3936 23.3338 33.0001C23.7688 32.239 23.9084 31.3842 23.789 30.5718H34.4529L33.2674 40.7531Z" fill="#25C5C2"/>
<path d="M15.9844 31.5305C16.9765 31.5305 17.9018 30.9912 18.3994 30.1232C18.6457 29.6933 18.5004 29.143 18.075 28.8942C17.6494 28.6455 17.105 28.7921 16.8586 29.2219C16.6784 29.5364 16.3434 29.7318 15.9845 29.7318C15.4282 29.7318 14.9757 29.2745 14.9757 28.7125C14.9757 28.1505 15.4282 27.6932 15.9845 27.6932C16.4763 27.6932 16.8747 27.2907 16.8747 26.7939C16.8747 26.2971 16.4763 25.8945 15.9845 25.8945C14.4465 25.8945 13.1953 27.1587 13.1953 28.7125C13.1953 30.2663 14.4464 31.5305 15.9844 31.5305Z" fill="#25C5C2"/>
<path d="M14.7085 18.1008C15.7005 18.1008 16.626 17.5615 17.1235 16.6936C17.3699 16.2637 17.2248 15.7134 16.7994 15.4646C16.3741 15.2158 15.8294 15.3623 15.5829 15.7921C15.4025 16.1066 15.0676 16.3021 14.7086 16.3021C14.1523 16.3021 13.6998 15.8449 13.6998 15.2828C13.6998 14.7208 14.1523 14.2635 14.7086 14.2635C15.2004 14.2635 15.5988 13.861 15.5988 13.3642C15.5988 12.8674 15.2004 12.4648 14.7086 12.4648C13.1707 12.4648 11.9194 13.729 11.9194 15.2828C11.9194 16.8367 13.1705 18.1008 14.7085 18.1008Z" fill="#25C5C2"/>
</svg>
