<svg width="53" height="46" viewBox="0 0 53 46" fill="none" xmlns="http://www.w3.org/2000/svg">
<path d="M11.3531 16.1825C12.6901 14.6417 14.3053 13.3301 16.1534 12.2844C17.6714 11.4259 19.3156 10.7685 21.0398 10.3305C22.7095 9.90696 24.444 9.69236 26.1948 9.69236C27.9457 9.69236 29.6801 9.90706 31.3493 10.3304C33.0741 10.7685 34.7183 11.426 36.2359 12.2844C38.0842 13.3302 39.6993 14.6418 41.0365 16.1828C42.1962 17.519 43.1163 18.9949 43.7708 20.5695C43.7907 20.6173 43.8143 20.6624 43.8395 20.7062C43.846 20.7175 43.8528 20.7284 43.8596 20.7394C43.8854 20.781 43.9129 20.821 43.9432 20.8584C43.9465 20.8626 43.9494 20.8672 43.9528 20.8711C43.9862 20.9116 44.0227 20.9487 44.0607 20.984C44.0697 20.9924 44.079 21.0005 44.0883 21.0087C44.1262 21.0415 44.1652 21.0725 44.2064 21.1003C44.2084 21.1015 44.21 21.103 44.2118 21.1042C44.2549 21.1328 44.3001 21.1574 44.3464 21.18C44.3576 21.1855 44.3687 21.1907 44.3801 21.1958C44.427 21.2171 44.4749 21.2363 44.5241 21.2513C44.5253 21.2517 44.5267 21.2519 44.5278 21.2522C44.576 21.2667 44.6253 21.2771 44.6751 21.2854C44.6877 21.2875 44.7002 21.2895 44.713 21.2912C44.7639 21.298 44.8154 21.3025 44.8672 21.3026C44.8681 21.3026 44.8691 21.3028 44.8701 21.3028C44.9002 21.3028 44.9305 21.3008 44.9608 21.2985C44.9672 21.298 44.9737 21.2982 44.9801 21.2976C45.0182 21.294 45.0564 21.2886 45.0945 21.2811C45.1039 21.2793 45.1132 21.2764 45.1225 21.2743C45.1511 21.2681 45.1795 21.2616 45.2078 21.2533C45.2214 21.2493 45.2348 21.2438 45.2483 21.2393C45.2698 21.2321 45.2915 21.2255 45.3129 21.217C45.3165 21.2155 45.3201 21.2139 45.3238 21.2123C45.3247 21.2119 45.3256 21.2117 45.3266 21.2114C45.3278 21.2109 45.3287 21.2103 45.3299 21.2098C49.5007 19.5276 52.1948 15.5382 52.1948 11.0405C52.1948 4.99682 47.278 0.0800781 41.2344 0.0800781C36.4053 0.0800781 32.187 3.2471 30.7757 7.76419C29.2769 7.4659 27.7415 7.31244 26.1948 7.31244C24.6481 7.31244 23.1128 7.4657 21.6139 7.76419C20.2026 3.247 15.9843 0.0800781 11.1552 0.0800781C5.11167 0.0800781 0.194824 4.99682 0.194824 11.0405C0.194824 15.1513 2.44616 18.8369 6.01801 20.7249C5.3995 22.5344 5.08546 24.4142 5.08546 26.3288C5.08546 29.6858 6.0693 32.9856 7.93033 35.8712C9.72372 38.652 12.2909 40.9958 15.3543 42.6495C18.6183 44.4128 22.3668 45.345 26.195 45.345C30.0232 45.345 33.7718 44.4129 37.0353 42.6498C42.8137 39.5305 46.6209 34.071 47.2196 28.0457C47.2846 27.3918 46.807 26.8089 46.1531 26.7439C45.4992 26.6794 44.9162 27.1564 44.8515 27.8103C44.3903 32.4523 41.7092 36.7217 37.5674 39.5428V32.4199C37.5674 27.846 33.44 24.1249 28.3668 24.1249H24.0234C18.9502 24.1249 14.8229 27.846 14.8229 32.4199V39.547C10.1827 36.4094 7.46528 31.5875 7.46528 26.3287C7.46528 24.3492 7.85345 22.4114 8.61872 20.5693C9.27339 18.9949 10.1933 17.5189 11.3531 16.1825ZM42.3388 14.0747C41.0883 12.7379 39.6471 11.5682 38.0399 10.5859C38.2615 9.02032 39.6091 7.81203 41.2343 7.81203C43.0144 7.81203 44.4626 9.26021 44.4626 11.0403C44.4626 12.4277 43.5987 13.6214 42.3388 14.0747ZM41.2342 2.45989C45.9656 2.45989 49.8148 6.30921 49.8148 11.0405C49.8149 14.1849 48.1321 17.011 45.4469 18.5181C45.006 17.6369 44.491 16.7877 43.9055 15.9763C45.6782 15.0238 46.8424 13.1625 46.8424 11.0405C46.8424 7.94812 44.3265 5.43232 41.2342 5.43232C38.7044 5.43232 36.5616 7.11714 35.8658 9.42342C34.9682 9.006 34.0391 8.64779 33.0847 8.35112C34.2265 4.88114 37.4971 2.45989 41.2342 2.45989ZM26.1948 35.2338L23.8709 32.7224H28.5189L26.1948 35.2338ZM17.2025 32.42C17.2025 29.1584 20.2623 26.5049 24.0232 26.5049H28.3664C32.1273 26.5049 35.1872 29.1584 35.1872 32.42V40.9217C32.7883 42.0908 30.1253 42.7764 27.3848 42.9305V37.4518L30.5181 34.0656C31.1266 33.4096 31.2823 32.4926 30.9244 31.6725C30.5717 30.8645 29.7741 30.3422 28.8924 30.3422H23.4973C22.6157 30.3422 21.8181 30.8644 21.4654 31.6725C21.1075 32.4926 21.2632 33.4097 21.8707 34.0646L25.005 37.4518V42.9305C22.2645 42.7764 19.6017 42.0908 17.2027 40.9215V32.42H17.2025ZM10.0506 14.0751C8.79087 13.6224 7.92698 12.4287 7.92698 11.0405C7.92698 9.26041 9.37516 7.81223 11.1552 7.81223C12.7804 7.81223 14.1282 9.02042 14.3497 10.586C12.7427 11.5682 11.3012 12.738 10.0506 14.0751ZM6.94254 18.5181C4.25743 17.011 2.57464 14.1849 2.57464 11.0405C2.57464 6.30911 6.42396 2.45989 11.1552 2.45989C14.8923 2.45989 18.163 4.88114 19.3047 8.35122C18.3504 8.64799 17.4213 9.006 16.5236 9.42342C15.8278 7.11694 13.6851 5.43232 11.1552 5.43232C8.06297 5.43232 5.54707 7.94822 5.54707 11.0405C5.54707 13.1633 6.71107 15.0245 8.48354 15.9767C7.89824 16.788 7.38332 17.637 6.94254 18.5181Z" fill="#25C5C2"/>
<path d="M47.1479 24.0054C47.1072 23.705 47.058 23.402 47.0017 23.1048C46.8792 22.4592 46.2566 22.0357 45.6108 22.1577C44.9651 22.2802 44.5411 22.903 44.6637 23.5487C44.7122 23.8046 44.7547 24.0657 44.7898 24.3246C44.8706 24.9217 45.3812 25.3549 45.9673 25.3549C46.0206 25.3549 46.0743 25.3514 46.1284 25.3441C46.7797 25.2559 47.2362 24.6566 47.1479 24.0054Z" fill="#25C5C2"/>
<path d="M21.6421 15.6445C20.9849 15.6445 20.4521 16.1772 20.4521 16.8344V19.4118C20.4521 20.069 20.985 20.6017 21.6421 20.6017C22.2991 20.6017 22.832 20.069 22.832 19.4118V16.8344C22.832 16.1772 22.2991 15.6445 21.6421 15.6445Z" fill="#25C5C2"/>
<path d="M30.7475 15.6445C30.0904 15.6445 29.5576 16.1772 29.5576 16.8344V19.4118C29.5576 20.069 30.0905 20.6017 30.7475 20.6017C31.4046 20.6017 31.9374 20.069 31.9374 19.4118V16.8344C31.9375 16.1772 31.4046 15.6445 30.7475 15.6445Z" fill="#25C5C2"/>
</svg>
