<svg width="119" height="34" viewBox="0 0 119 34" fill="none" xmlns="http://www.w3.org/2000/svg">
<path opacity="0.3" d="M6.49483 16.7023C2.89483 15.7023 0.194824 12.8023 0.194824 8.60234C0.194824 3.40234 4.49483 0.402344 9.09483 0.402344H30.9948V6.70234H18.1948V11.6023H28.0948V17.7023H18.1948V26.4023H11.3948V6.50234H8.99483C7.89483 6.50234 6.59483 7.20234 6.59483 8.60234C6.59483 9.70234 7.29482 10.4023 8.19482 10.8023L6.49483 16.7023ZM34.1948 26.4023V0.402344H41.1948V26.4023H34.1948ZM53.2948 6.80234C58.4948 6.80234 62.1948 9.30234 62.1948 14.5023V26.4023H56.2948V24.4023C55.1948 26.4023 52.6948 27.0023 50.2948 27.0023C46.0948 27.0023 43.6948 24.0023 43.6948 20.6023C43.6948 17.7023 45.9948 14.2023 51.6948 14.2023H55.7948V13.9023C55.7948 11.7023 54.9948 10.9023 53.1948 10.9023C51.5948 10.9023 50.5948 11.7023 50.4948 13.2023H44.4948C44.7948 9.50234 47.7948 6.80234 53.2948 6.80234ZM55.8948 19.1023V18.0023H52.9948C51.2948 18.0023 49.9948 18.9023 49.9948 20.2023C49.9948 21.6023 50.9948 22.3023 52.6948 22.3023C54.6948 22.3023 55.8948 20.9023 55.8948 19.1023ZM82.5948 10.2023C83.8948 7.80234 85.7948 6.90234 88.2948 6.90234C93.0948 6.90234 95.1948 9.90234 95.1948 14.7023V26.4023H88.6948V16.0023C88.6948 13.8023 88.2948 12.5023 86.3948 12.5023C84.2948 12.5023 83.6948 14.1023 83.6948 16.2023V26.4023H77.1948V16.0023C77.1948 13.8023 76.6948 12.5023 74.6948 12.5023C72.5948 12.5023 71.8948 14.3023 71.8948 16.5023V26.5023H65.1948V7.40234H71.4948V10.2023C72.7948 7.50234 75.0948 6.80234 77.1948 6.80234C79.6948 6.80234 81.4948 7.80234 82.5948 10.2023ZM104.595 10.0023C105.895 7.60234 108.295 6.80234 110.595 6.80234C115.595 6.80234 118.595 11.0023 118.595 16.9023C118.595 22.9023 115.495 27.0023 110.595 27.0023C108.295 27.0023 105.995 26.3023 104.795 24.4023V33.4023H98.1948V7.40234H104.595V10.0023ZM108.195 21.8023C110.995 21.8023 112.095 19.5023 112.095 16.9023C112.095 14.3023 111.095 12.1023 108.195 12.1023C105.495 12.1023 104.295 14.3023 104.295 16.9023C104.395 19.5023 105.495 21.8023 108.195 21.8023Z" fill="#3A9194"/>
</svg>
