<svg width="12" height="13" viewBox="0 0 12 13" fill="none" xmlns="http://www.w3.org/2000/svg">
<path d="M6.40715 8.78355C6.20363 8.60455 5.8726 8.63152 5.69361 8.83504L3.80554 10.9634V2.45729C3.80554 2.17776 3.57505 1.94727 3.29551 1.94727C3.01598 1.94727 2.78549 2.17776 2.78549 2.45729V10.9634L0.897422 8.83504C0.693903 8.63152 0.387398 8.60455 0.183879 8.78355C-0.0196399 8.98706 -0.0466123 9.29357 0.132386 9.49709L2.913 12.6087C3.12142 12.8662 3.48922 12.827 3.65351 12.6087L6.45864 9.49709C6.63764 9.29602 6.61312 8.96254 6.40715 8.78355Z" fill="#25C5C2"/>
<path d="M11.8678 4.09004L9.11173 0.978408C8.86653 0.730752 8.56003 0.71604 8.3467 0.978408L5.54157 4.09004C5.36257 4.29356 5.38954 4.62459 5.59306 4.80359C5.90692 5.05369 6.22323 4.88205 6.3066 4.75209L8.19467 2.62372V11.1053C8.19467 11.3849 8.42516 11.6153 8.7047 11.6153C8.98423 11.6153 9.21472 11.4118 9.21472 11.1298V2.62618L11.1028 4.75455C11.3063 4.95806 11.6128 4.98504 11.8163 4.80604C12.0199 4.60007 12.0468 4.29356 11.8678 4.09004Z" fill="#25C5C2"/>
</svg>
