<svg width="21" height="21" viewBox="0 0 21 21" fill="none" xmlns="http://www.w3.org/2000/svg">
<path d="M2.86117 0.849609H17.7276C19.1399 0.849609 20.2946 2.00463 20.2946 3.41701V18.2834C20.2946 19.6954 19.1399 20.8496 17.7276 20.8496H2.86117C1.44879 20.8496 0.292969 19.6953 0.292969 18.2834V3.41701C0.292969 2.00463 1.44879 0.849609 2.86117 0.849609ZM14.8639 3.07092C14.368 3.07092 13.9635 3.47702 13.9635 3.97266V6.1271C13.9635 6.62294 14.368 7.0281 14.8639 7.0281H17.1242C17.6194 7.0281 18.0247 6.62294 18.0247 6.1271V3.97266C18.0247 3.47702 17.6194 3.07092 17.1242 3.07092H14.8639ZM18.0333 9.30735H16.2734C16.4403 9.8524 16.5308 10.4272 16.5308 11.0248C16.5308 14.3505 13.7462 17.0479 10.3126 17.0479C6.87983 17.0479 4.09514 14.3505 4.09514 11.0248C4.09514 10.4272 4.18648 9.8524 4.35256 9.30735H2.51648V17.7568C2.51648 18.1944 2.87378 18.5504 3.31094 18.5504H17.2392C17.6768 18.5504 18.0333 18.1944 18.0333 17.7568V9.30735ZM10.3126 6.91449C8.09513 6.91449 6.29632 8.6565 6.29632 10.8073C6.29632 12.956 8.09513 14.6993 10.3126 14.6993C12.5313 14.6993 14.3302 12.956 14.3302 10.8073C14.3302 8.65643 12.5313 6.91449 10.3126 6.91449Z" fill="#AABFBF"/>
</svg>
