<svg width="26" height="25" viewBox="0 0 26 25" fill="none" xmlns="http://www.w3.org/2000/svg">
<g opacity="0.8">
<path d="M0.900391 24.1492L2.97655 17.9212C1.92307 16.1493 1.31662 14.0814 1.31662 11.8704C1.31662 5.31892 6.62773 0.0078125 13.1792 0.0078125C19.7307 0.0078125 25.0418 5.31892 25.0418 11.8704C25.0418 18.4219 19.7307 23.733 13.1792 23.733C11.1859 23.733 9.30868 23.2389 7.65999 22.3707L0.900391 24.1492Z" fill="#364647" fill-opacity="0.8"/>
<path d="M20.7473 15.818C20.1996 14.7829 18.1796 13.5991 18.1796 13.5991C17.7226 13.3385 17.1711 13.3094 16.9105 13.7739C16.9105 13.7739 16.2541 14.561 16.0872 14.6742C15.3247 15.1908 14.6183 15.1708 13.9053 14.4578L12.2483 12.8008L10.5913 11.1438C9.87829 10.4308 9.85831 9.72441 10.3749 8.96187C10.4881 8.79497 11.2752 8.13857 11.2752 8.13857C11.7397 7.87759 11.7105 7.3265 11.45 6.86948C11.45 6.86948 10.2662 4.84951 9.23105 4.30175C8.79068 4.06866 8.24999 4.15024 7.89786 4.50237L7.16613 5.23411C4.84481 7.55543 5.98778 10.176 8.3091 12.4973L10.4306 14.6189L12.5522 16.7404C14.8735 19.0617 17.4941 20.2047 19.8154 17.8834L20.5471 17.1516C20.8993 16.7987 20.9804 16.258 20.7473 15.818Z" fill="#E7FAFA"/>
</g>
</svg>
