<svg width="21" height="21" viewBox="0 0 21 21" fill="none" xmlns="http://www.w3.org/2000/svg">
<g opacity="0.7">
<path d="M0.611328 20.8496L2.33133 15.69C1.45857 14.222 0.956156 12.5089 0.956156 10.6772C0.956156 5.24961 5.35616 0.849609 10.7837 0.849609C16.2113 0.849609 20.6113 5.24961 20.6113 10.6772C20.6113 16.1048 16.2113 20.5048 10.7837 20.5048C9.13236 20.5048 7.57719 20.0955 6.21133 19.3762L0.611328 20.8496Z" fill="#EBFAFA"/>
<path d="M17.0539 13.9468C16.6002 13.0892 14.9267 12.1085 14.9267 12.1085C14.5481 11.8926 14.0912 11.8685 13.8753 12.2533C13.8753 12.2533 13.3315 12.9054 13.1933 12.9992C12.5615 13.4271 11.9764 13.4106 11.3857 12.8199L10.0129 11.4471L8.64015 10.0744C8.04946 9.48367 8.03291 8.8985 8.46084 8.26678C8.55463 8.1285 9.2067 7.58471 9.2067 7.58471C9.59153 7.3685 9.56739 6.91195 9.35153 6.53333C9.35153 6.53333 8.37084 4.85988 7.51325 4.40609C7.14843 4.21298 6.7005 4.28057 6.40877 4.57229L5.80256 5.1785C3.87946 7.10161 4.82636 9.27264 6.74946 11.1957L8.50705 12.9533L10.2646 14.7109C12.1877 16.634 14.3588 17.5809 16.2819 15.6578L16.8881 15.0516C17.1798 14.7592 17.247 14.3113 17.0539 13.9468Z" fill="#143637"/>
</g>
</svg>
